<?xml version="1.0" encoding="UTF-8"?>
<svg id="_レイヤー_2" data-name="レイヤー 2" xmlns="http://www.w3.org/2000/svg" viewBox="0 0 362.22 84.06">
  <defs>
    <style>
      .cls-1 {
        fill: #231815;
        stroke: #231815;
        stroke-miterlimit: 10;
        stroke-width: .75px;
      }
    </style>
  </defs>
  <g id="_レイヤー_1-2" data-name="レイヤー 1">
    <g>
      <path class="cls-1" d="M.38,1.5h6.13v81.06H.38V1.5Z"/>
      <path class="cls-1" d="M12.23,1.5h6.13v33.55c2.29.68,4.29,1.69,6.05,3.04,2.08-2.36,3.64-10.58,3.64-21.28,0-5.18-.41-10.58-1.27-15.31h6.46c.37,1.91.57,4.95.57,8.44,0,10.92-2.33,23.75-8.74,28.71,7.68,6.75,10.22,20.94,10.22,42.22,0,.56-.08,1.13-.08,1.69h-6.87c.98-20.15-.9-43.23-9.97-46.27v46.27h-6.13V1.5Z"/>
      <path class="cls-1" d="M38.5,51.94V1.5h6.13v53.59c0,12.16,2.49,22.18,7.31,22.18,4.21,0,7.48-7.32,7.48-22.74,0-20.83-3.76-40.53-8.3-53.02h8.83v53.02c0,18.8-4.66,29.16-10.26,29.16-6.7,0-11.2-14.3-11.2-31.75Z"/>
      <path class="cls-1" d="M73.24,2.85c-3.96.45-7.48,11.6-9.24,24.88V1.5h24.6v26.23c-1.76-13.28-5.27-24.43-9.24-24.88v79.71h-6.13V2.85Z"/>
      <path class="cls-1" d="M89.95,42.03c0-22.97,5.48-41.65,14.14-41.65s14.14,18.69,14.14,41.65-5.48,41.65-14.14,41.65-14.14-18.69-14.14-41.65ZM111.85,42.03c0-23.19-3.43-40.3-7.76-40.3-4.78,0-7.76,17.11-7.76,40.3s3.43,40.3,7.76,40.3,7.76-17.11,7.76-40.3Z"/>
      <path class="cls-1" d="M131.71,1.5h6.13v30.51h11.93V1.5h6.13v81.06h-6.13v-49.09h-11.93v49.09h-6.13V1.5Z"/>
      <path class="cls-1" d="M160.4,42.03c0-22.97,5.48-41.65,14.14-41.65s14.14,18.69,14.14,41.65-5.48,41.65-14.14,41.65-14.14-18.69-14.14-41.65ZM182.31,42.03c0-23.19-3.43-40.3-7.76-40.3-4.78,0-7.76,17.11-7.76,40.3s3.43,40.3,7.76,40.3,7.76-17.11,7.76-40.3Z"/>
      <path class="cls-1" d="M191.83,51.71c2.25,19.48,5.48,30.51,9.32,30.51,2.49,0,4.94-4.95,4.94-14.3,0-22.85-14.51-23.08-14.51-47.28,0-11.03,2.82-20.26,10.01-20.26,2.49,0,6.05,1.01,7.48,1.8v28.93c-2.04-15.2-5.48-28.93-9.19-28.93-1.84,0-3.31,3.38-3.31,9.57,0,20.6,14.51,21.73,14.51,47.62,0,12.38-3.15,24.32-10.22,24.32-3.27,0-7.4-1.91-9.03-2.81v-29.16Z"/>
      <path class="cls-1" d="M214.1,42.03c0-22.97,5.48-41.65,14.14-41.65s14.14,18.69,14.14,41.65-5.48,41.65-14.14,41.65-14.14-18.69-14.14-41.65ZM236,42.03c0-23.19-3.43-40.3-7.76-40.3-4.78,0-7.76,17.11-7.76,40.3s3.43,40.3,7.76,40.3,7.76-17.11,7.76-40.3Z"/>
      <path class="cls-1" d="M246.87,1.5h6.13v33.55c2.29.68,4.29,1.69,6.05,3.04,2.08-2.36,3.64-10.58,3.64-21.28,0-5.18-.41-10.58-1.27-15.31h6.46c.37,1.91.57,4.95.57,8.44,0,10.92-2.33,23.75-8.75,28.71,7.68,6.75,10.22,20.94,10.22,42.22,0,.56-.08,1.13-.08,1.69h-6.86c.98-20.15-.9-43.23-9.97-46.27v46.27h-6.13V1.5Z"/>
      <path class="cls-1" d="M298.69,82.56h-6.7l-4.54-30.17h-9.64c-.49,11.26.08,21.95,2.57,30.17h-8.83l10.18-68.22-1.92-12.83h6.42l12.46,81.06ZM277.89,50.92h9.36l-5.23-34.67-1.72,11.6c-1.1,7.43-2,15.31-2.41,23.08Z"/>
      <path class="cls-1" d="M306.78,82.56L296.44,1.5h6.74l8.87,69.57,4.25-37.26-4.13-32.31h6.74l8.87,69.69,1.63-14.07c2.45-21.16.41-46.5-1.76-55.61h8.83l-9.44,81.06h-4.54l-5.92-46.38-5.27,46.38h-4.54Z"/>
      <path class="cls-1" d="M361.79,82.56h-6.7l-4.54-30.17h-9.64c-.49,11.26.08,21.95,2.57,30.17h-8.83l10.18-68.22-1.92-12.83h6.42l12.46,81.06ZM340.99,50.92h9.36l-5.23-34.67-1.72,11.6c-1.1,7.43-2,15.31-2.41,23.08Z"/>
    </g>
  </g>
</svg>